<svg width="1201" height="632" viewBox="0 0 1201 632" fill="none" xmlns="http://www.w3.org/2000/svg">
<rect width="1201" height="632" fill="#F5F5F5"/>
<g clip-path="url(#clip0_0_1)">
<path d="M689.48 541.975L674.887 535.83L664.877 462.679H531.573L520.722 535.531L507.667 542.059C507.042 542.371 506.542 542.885 506.246 543.518C505.95 544.15 505.876 544.864 506.036 545.544C506.197 546.224 506.582 546.829 507.13 547.263C507.677 547.696 508.355 547.932 509.054 547.932H688.277C688.993 547.932 689.687 547.684 690.24 547.231C690.794 546.778 691.174 546.147 691.316 545.445C691.458 544.744 691.352 544.015 691.018 543.382C690.683 542.749 690.139 542.252 689.48 541.975Z" fill="#E6E6E6"/>
<path d="M926.371 472.411H271.542C268.106 472.404 264.814 471.033 262.387 468.601C259.961 466.169 258.598 462.874 258.598 459.438V367.099H939.315V459.438C939.315 462.874 937.953 466.169 935.526 468.601C933.099 471.033 929.807 472.404 926.371 472.411Z" fill="#CCCCCC"/>
<path d="M940 410.74H258V15.6391C258.005 11.4927 259.654 7.51755 262.586 4.58568C265.518 1.6538 269.493 0.00465016 273.64 0H924.36C928.507 0.00463948 932.482 1.65379 935.414 4.58566C938.346 7.51753 939.995 11.4927 940 15.6391V410.74Z" fill="#3F3D56"/>
<path d="M899.267 382.064H298.733C295.537 382.06 292.472 380.789 290.212 378.529C287.951 376.268 286.68 373.204 286.676 370.007V40.7332C286.68 37.5365 287.951 34.4718 290.211 32.2114C292.472 29.951 295.536 28.6795 298.733 28.6758H899.267C902.464 28.6795 905.528 29.951 907.789 32.2114C910.049 34.4718 911.32 37.5365 911.324 40.7332V370.007C911.32 373.204 910.049 376.268 907.788 378.529C905.528 380.789 902.463 382.06 899.267 382.064Z" fill="white"/>
<path d="M767.42 548.695H429.972C429.626 548.702 429.288 548.595 429.009 548.39C428.731 548.185 428.528 547.894 428.433 547.561C428.373 547.335 428.366 547.098 428.412 546.869C428.459 546.64 428.557 546.424 428.7 546.239C428.842 546.053 429.026 545.903 429.235 545.8C429.445 545.696 429.676 545.643 429.91 545.642H767.295C767.66 545.63 768.018 545.741 768.311 545.957C768.605 546.174 768.816 546.484 768.911 546.836C768.961 547.059 768.959 547.291 768.907 547.514C768.856 547.736 768.754 547.945 768.611 548.123C768.468 548.301 768.287 548.445 768.081 548.544C767.874 548.643 767.649 548.695 767.42 548.695Z" fill="#CCCCCC"/>
<path d="M892.856 81.9094H747.86V192.683H892.856V81.9094Z" fill="#F2F2F2"/>
<path d="M885.651 87.4137H755.065V187.178H885.651V87.4137Z" fill="white"/>
<path d="M822.651 161.414C822.668 161.414 822.686 161.414 822.703 161.413C831.542 160.951 839.874 157.139 846.003 150.753C852.133 144.366 855.599 135.885 855.699 127.034C855.798 118.183 852.522 109.627 846.538 103.104C840.553 96.5825 832.309 92.5847 823.482 91.9243C823.373 91.9157 823.263 91.9298 823.16 91.9657C823.056 92.0015 822.961 92.0584 822.881 92.1326C822.801 92.2057 822.736 92.2945 822.692 92.3936C822.648 92.4926 822.625 92.5997 822.624 92.7082L821.863 160.61C821.861 160.821 821.943 161.024 822.091 161.175C822.238 161.326 822.44 161.412 822.651 161.414Z" fill="#3F3D56"/>
<path d="M795.346 103.152C795.617 103.156 795.875 103.266 796.065 103.46L819.441 127.366C819.535 127.461 819.609 127.575 819.659 127.699C819.709 127.824 819.734 127.957 819.732 128.091L819.368 160.582C819.367 160.722 819.337 160.859 819.28 160.987C819.223 161.114 819.141 161.228 819.038 161.322C818.934 161.417 818.812 161.49 818.68 161.536C818.547 161.582 818.406 161.6 818.266 161.59C811.767 161.103 805.532 158.814 800.262 154.979C794.992 151.144 790.896 145.916 788.434 139.881C785.972 133.846 785.241 127.245 786.325 120.818C787.408 114.391 790.263 108.393 794.567 103.499C794.66 103.394 794.774 103.309 794.901 103.249C795.029 103.189 795.167 103.157 795.308 103.153C795.32 103.152 795.333 103.152 795.346 103.152Z" fill="#E6E6E6"/>
<path d="M819.116 91.6467C819.376 91.6499 819.626 91.752 819.815 91.9326C819.916 92.0288 819.996 92.1449 820.05 92.2736C820.104 92.4023 820.131 92.5409 820.129 92.6804L819.8 121.996C819.798 122.198 819.736 122.395 819.622 122.561C819.508 122.728 819.347 122.857 819.16 122.932C818.972 123.007 818.767 123.025 818.569 122.984C818.372 122.942 818.191 122.843 818.05 122.698L797.652 101.838C797.555 101.738 797.479 101.621 797.429 101.491C797.379 101.362 797.356 101.224 797.361 101.085C797.366 100.946 797.4 100.81 797.459 100.685C797.518 100.56 797.603 100.448 797.707 100.356C803.639 95.134 811.16 92.066 819.052 91.648C819.073 91.6469 819.094 91.6465 819.116 91.6467Z" fill="#6C63FF"/>
<path d="M808.607 175.495C808.593 176.732 808.213 177.936 807.514 178.957C806.816 179.978 805.83 180.768 804.682 181.229C803.534 181.689 802.276 181.799 801.065 181.544C799.855 181.289 798.748 180.681 797.883 179.797C797.018 178.913 796.435 177.792 796.208 176.576C795.98 175.36 796.118 174.104 796.604 172.967C797.09 171.83 797.902 170.862 798.938 170.187C799.974 169.511 801.187 169.158 802.424 169.172C804.082 169.192 805.664 169.869 806.823 171.055C807.982 172.24 808.624 173.837 808.607 175.495Z" fill="#6C63FF"/>
<path d="M826.473 175.695C826.459 176.932 826.079 178.137 825.38 179.157C824.682 180.178 823.696 180.968 822.548 181.429C821.4 181.889 820.142 181.999 818.931 181.744C817.721 181.489 816.613 180.881 815.749 179.997C814.884 179.113 814.301 177.992 814.073 176.776C813.846 175.561 813.984 174.305 814.47 173.167C814.956 172.03 815.768 171.062 816.804 170.387C817.84 169.711 819.053 169.358 820.29 169.372C821.948 169.393 823.53 170.07 824.689 171.255C825.848 172.441 826.49 174.037 826.473 175.695Z" fill="#3F3D56"/>
<path d="M844.339 175.896C844.325 177.132 843.945 178.337 843.246 179.358C842.547 180.378 841.562 181.169 840.414 181.629C839.266 182.09 838.007 182.199 836.797 181.945C835.587 181.69 834.479 181.082 833.615 180.197C832.75 179.313 832.167 178.192 831.939 176.977C831.712 175.761 831.849 174.505 832.336 173.368C832.822 172.23 833.634 171.263 834.67 170.587C835.706 169.912 836.919 169.559 838.156 169.572C839.814 169.593 841.396 170.27 842.555 171.455C843.714 172.641 844.356 174.238 844.339 175.896Z" fill="#E6E6E6"/>
<path d="M891.329 210.116H746.333V320.89H891.329V210.116Z" fill="#F2F2F2"/>
<path d="M884.125 215.621H753.538V315.385H884.125V215.621Z" fill="white"/>
<path d="M775.695 248.41C778.689 248.41 781.117 245.983 781.117 242.988C781.117 239.994 778.689 237.566 775.695 237.566C772.7 237.566 770.273 239.994 770.273 242.988C770.273 245.983 772.7 248.41 775.695 248.41Z" fill="#3F3D56"/>
<path d="M862.812 238.769C863.296 238.768 863.775 238.863 864.221 239.047C864.668 239.231 865.074 239.502 865.416 239.844C865.759 240.185 866.03 240.591 866.215 241.037C866.4 241.484 866.496 241.963 866.496 242.446C866.496 242.929 866.4 243.408 866.215 243.855C866.03 244.301 865.759 244.707 865.416 245.048C865.074 245.39 864.668 245.66 864.221 245.845C863.775 246.029 863.296 246.124 862.812 246.123H805.787C804.812 246.123 803.876 245.736 803.187 245.046C802.497 244.356 802.11 243.421 802.11 242.446C802.11 241.471 802.497 240.535 803.187 239.846C803.876 239.156 804.812 238.769 805.787 238.769H862.812ZM862.812 237.868H805.787C805.185 237.867 804.589 237.985 804.033 238.215C803.477 238.444 802.971 238.781 802.546 239.207C802.12 239.632 801.782 240.137 801.551 240.693C801.321 241.248 801.202 241.844 801.202 242.446C801.202 243.048 801.321 243.643 801.551 244.199C801.782 244.755 802.12 245.26 802.546 245.685C802.971 246.11 803.477 246.448 804.033 246.677C804.589 246.907 805.185 247.025 805.787 247.024H862.812C863.414 247.025 864.01 246.907 864.566 246.677C865.123 246.448 865.628 246.11 866.054 245.685C866.48 245.26 866.817 244.755 867.048 244.199C867.278 243.643 867.397 243.048 867.397 242.446C867.397 241.844 867.278 241.248 867.048 240.693C866.817 240.137 866.48 239.632 866.054 239.207C865.628 238.781 865.123 238.444 864.566 238.215C864.01 237.985 863.414 237.867 862.812 237.868Z" fill="#3F3D56"/>
<path d="M840.311 247.024H797.383C796.169 247.024 795.004 246.541 794.146 245.683C793.287 244.824 792.805 243.66 792.805 242.446C792.805 241.232 793.287 240.067 794.146 239.209C795.004 238.35 796.169 237.868 797.383 237.868H840.311C841.525 237.868 842.69 238.35 843.548 239.209C844.407 240.067 844.889 241.232 844.889 242.446C844.889 243.66 844.407 244.824 843.548 245.683C842.69 246.541 841.525 247.024 840.311 247.024Z" fill="#6C63FF"/>
<path d="M775.695 270.925C778.689 270.925 781.117 268.498 781.117 265.503C781.117 262.509 778.689 260.081 775.695 260.081C772.7 260.081 770.273 262.509 770.273 265.503C770.273 268.498 772.7 270.925 775.695 270.925Z" fill="#3F3D56"/>
<path d="M862.812 261.284C863.296 261.283 863.775 261.377 864.221 261.562C864.668 261.746 865.074 262.017 865.416 262.359C865.759 262.7 866.03 263.106 866.215 263.552C866.4 263.999 866.496 264.477 866.496 264.961C866.496 265.444 866.4 265.923 866.215 266.369C866.03 266.816 865.759 267.222 865.416 267.563C865.074 267.905 864.668 268.175 864.221 268.36C863.775 268.544 863.296 268.639 862.812 268.638H805.787C804.812 268.638 803.876 268.251 803.187 267.561C802.497 266.871 802.11 265.936 802.11 264.961C802.11 263.986 802.497 263.05 803.187 262.361C803.876 261.671 804.812 261.284 805.787 261.284H862.812ZM862.812 260.383H805.787C804.573 260.383 803.408 260.865 802.55 261.724C801.691 262.582 801.209 263.747 801.209 264.961C801.209 266.175 801.691 267.339 802.55 268.198C803.408 269.056 804.573 269.539 805.787 269.539H862.812C864.027 269.539 865.191 269.056 866.049 268.198C866.908 267.339 867.39 266.175 867.39 264.961C867.39 263.747 866.908 262.582 866.049 261.724C865.191 260.865 864.027 260.383 862.812 260.383Z" fill="#3F3D56"/>
<path d="M856.522 269.539H797.383C796.169 269.539 795.004 269.056 794.146 268.198C793.287 267.339 792.805 266.175 792.805 264.961C792.805 263.747 793.287 262.582 794.146 261.724C795.004 260.865 796.169 260.383 797.383 260.383H856.522C857.736 260.383 858.9 260.865 859.759 261.724C860.617 262.582 861.1 263.747 861.1 264.961C861.1 266.175 860.617 267.339 859.759 268.198C858.9 269.056 857.736 269.539 856.522 269.539Z" fill="#6C63FF"/>
<path d="M775.695 293.44C778.689 293.44 781.117 291.012 781.117 288.018C781.117 285.023 778.689 282.596 775.695 282.596C772.7 282.596 770.273 285.023 770.273 288.018C770.273 291.012 772.7 293.44 775.695 293.44Z" fill="#3F3D56"/>
<path d="M862.812 283.799C863.296 283.798 863.775 283.892 864.221 284.077C864.668 284.261 865.074 284.532 865.416 284.873C865.759 285.215 866.03 285.621 866.215 286.067C866.4 286.514 866.496 286.992 866.496 287.476C866.496 287.959 866.4 288.438 866.215 288.884C866.03 289.331 865.759 289.736 865.416 290.078C865.074 290.42 864.668 290.69 864.221 290.875C863.775 291.059 863.296 291.154 862.812 291.153H805.787C804.812 291.153 803.876 290.765 803.187 290.076C802.497 289.386 802.11 288.451 802.11 287.476C802.11 286.501 802.497 285.565 803.187 284.876C803.876 284.186 804.812 283.799 805.787 283.799H862.812ZM862.812 282.898H805.787C804.573 282.898 803.408 283.38 802.55 284.239C801.691 285.097 801.209 286.262 801.209 287.476C801.209 288.69 801.691 289.854 802.55 290.713C803.408 291.571 804.573 292.053 805.787 292.053H862.812C864.027 292.053 865.191 291.571 866.049 290.713C866.908 289.854 867.39 288.69 867.39 287.476C867.39 286.262 866.908 285.097 866.049 284.239C865.191 283.38 864.027 282.898 862.812 282.898Z" fill="#3F3D56"/>
<path d="M821.399 292.053H797.383C796.781 292.054 796.185 291.937 795.629 291.707C795.073 291.477 794.567 291.14 794.142 290.715C793.716 290.29 793.378 289.785 793.147 289.229C792.917 288.673 792.798 288.077 792.798 287.476C792.798 286.874 792.917 286.278 793.147 285.722C793.378 285.167 793.716 284.662 794.142 284.236C794.567 283.811 795.073 283.474 795.629 283.245C796.185 283.015 796.781 282.897 797.383 282.898H821.399C822.612 282.9 823.774 283.383 824.631 284.241C825.488 285.099 825.97 286.263 825.97 287.476C825.97 288.689 825.488 289.852 824.631 290.71C823.774 291.569 822.612 292.052 821.399 292.053Z" fill="#6C63FF"/>
<path d="M714.282 101.508H309.188V309.118H714.282V101.508Z" fill="#F2F2F2"/>
<path d="M700.779 111.824H322.692V298.802H700.779V111.824Z" fill="white"/>
<path d="M653.888 270.277H378.27C378.041 270.277 377.821 270.186 377.66 270.024C377.498 269.862 377.407 269.643 377.407 269.414V137.31C377.407 137.082 377.498 136.862 377.66 136.7C377.821 136.539 378.041 136.448 378.27 136.448C378.498 136.448 378.718 136.539 378.88 136.7C379.041 136.862 379.132 137.082 379.132 137.31V268.552H653.888C654.117 268.552 654.336 268.642 654.498 268.804C654.66 268.966 654.75 269.185 654.75 269.414C654.75 269.643 654.66 269.862 654.498 270.024C654.336 270.186 654.117 270.277 653.888 270.277Z" fill="#3F3D56"/>
<path d="M437.157 260.789H412.089C411.41 260.788 410.759 260.518 410.279 260.038C409.799 259.558 409.529 258.907 409.528 258.228V223.671C409.529 222.992 409.799 222.342 410.279 221.862C410.759 221.382 411.41 221.112 412.089 221.111H437.157C437.836 221.112 438.487 221.382 438.967 221.862C439.447 222.342 439.717 222.992 439.718 223.671V258.228C439.717 258.907 439.447 259.558 438.967 260.038C438.487 260.518 437.836 260.788 437.157 260.789Z" fill="#6C63FF"/>
<path d="M482.873 260.789H457.804C457.126 260.788 456.475 260.518 455.995 260.038C455.515 259.558 455.245 258.907 455.244 258.228V190.894C455.245 190.215 455.515 189.564 455.995 189.084C456.475 188.604 457.126 188.334 457.804 188.334H482.873C483.552 188.334 484.203 188.604 484.683 189.084C485.163 189.564 485.433 190.215 485.433 190.894V258.228C485.433 258.907 485.163 259.558 484.683 260.038C484.203 260.518 483.552 260.788 482.873 260.789Z" fill="#6C63FF"/>
<path d="M528.589 260.789H503.52C502.841 260.788 502.19 260.518 501.71 260.038C501.23 259.558 500.96 258.907 500.959 258.228V223.671C500.96 222.992 501.23 222.342 501.71 221.862C502.19 221.382 502.841 221.112 503.52 221.111H528.589C529.267 221.112 529.918 221.382 530.398 221.862C530.878 222.342 531.148 222.992 531.149 223.671V258.228C531.148 258.907 530.878 259.558 530.398 260.038C529.918 260.518 529.267 260.788 528.589 260.789Z" fill="#6C63FF"/>
<path d="M574.304 260.789H549.236C548.572 260.803 547.93 260.554 547.45 260.095C546.97 259.637 546.692 259.008 546.675 258.344V177.84C546.692 177.176 546.97 176.546 547.45 176.088C547.93 175.63 548.572 175.381 549.236 175.395H574.304C574.968 175.381 575.61 175.63 576.089 176.088C576.569 176.546 576.848 177.176 576.865 177.84V258.344C576.848 259.008 576.569 259.637 576.089 260.095C575.61 260.554 574.968 260.803 574.304 260.789Z" fill="#6C63FF"/>
<path d="M620.02 260.789H594.951C594.272 260.788 593.622 260.518 593.142 260.038C592.662 259.558 592.392 258.907 592.391 258.228V154.666C592.392 153.988 592.662 153.337 593.142 152.857C593.622 152.377 594.272 152.107 594.951 152.106H620.02C620.699 152.107 621.349 152.377 621.829 152.857C622.309 153.337 622.58 153.988 622.58 154.666V258.228C622.58 258.907 622.309 259.558 621.829 260.038C621.349 260.518 620.699 260.788 620.02 260.789Z" fill="#6C63FF"/>
<path d="M424.623 210.76C427.481 210.76 429.798 208.443 429.798 205.585C429.798 202.727 427.481 200.409 424.623 200.409C421.765 200.409 419.448 202.727 419.448 205.585C419.448 208.443 421.765 210.76 424.623 210.76Z" fill="#3F3D56"/>
<path d="M470.339 177.12C473.197 177.12 475.514 174.803 475.514 171.945C475.514 169.087 473.197 166.77 470.339 166.77C467.48 166.77 465.163 169.087 465.163 171.945C465.163 174.803 467.48 177.12 470.339 177.12Z" fill="#3F3D56"/>
<path d="M516.054 210.76C518.913 210.76 521.23 208.443 521.23 205.585C521.23 202.727 518.913 200.409 516.054 200.409C513.196 200.409 510.879 202.727 510.879 205.585C510.879 208.443 513.196 210.76 516.054 210.76Z" fill="#3F3D56"/>
<path d="M561.77 160.732C564.628 160.732 566.945 158.415 566.945 155.556C566.945 152.698 564.628 150.381 561.77 150.381C558.912 150.381 556.595 152.698 556.595 155.556C556.595 158.415 558.912 160.732 561.77 160.732Z" fill="#3F3D56"/>
<path d="M607.486 141.755C610.344 141.755 612.661 139.438 612.661 136.58C612.661 133.722 610.344 131.405 607.486 131.405C604.627 131.405 602.31 133.722 602.31 136.58C602.31 139.438 604.627 141.755 607.486 141.755Z" fill="#3F3D56"/>
<path d="M516.163 206.744L470.339 172.421L425.14 206.275L424.106 204.895L470.339 170.265L515.945 204.425L561.266 154.83L561.447 154.756L607.163 136.337L607.808 137.937L562.274 156.283L516.163 206.744Z" fill="#3F3D56"/>
</g>
<path d="M69.4 618.446H81.66L87.492 571.158L69.398 571.159L69.4 618.446Z" fill="#FFB6B6"/>
<path d="M66.2725 614.444L90.4165 614.443C94.4971 614.443 98.4116 616.064 101.297 618.95C104.183 621.835 105.804 625.749 105.804 629.829V630.329L66.2732 630.331L66.2725 614.444Z" fill="#2F2E41"/>
<path d="M111.4 618.446H123.66L129.492 571.158L111.398 571.159L111.4 618.446Z" fill="#FFB6B6"/>
<path d="M108.272 614.444L132.416 614.443H132.417C136.498 614.443 140.412 616.064 143.297 618.95C146.183 621.835 147.804 625.749 147.804 629.829V630.329L108.273 630.331L108.272 614.444Z" fill="#2F2E41"/>
<path d="M157.987 412.444L128.038 597.429L108.038 596.429L108.534 426.574L157.987 412.444Z" fill="#2F2E41"/>
<path d="M77.2476 355.927L149.913 356.936L157.987 412.444L108.534 435.657L87.0382 592.429L68.0382 591.429L61.0996 397.306L77.2476 355.927Z" fill="#2F2E41"/>
<path d="M120.645 212.614C132.908 212.614 142.848 202.673 142.848 190.411C142.848 178.148 132.908 168.207 120.645 168.207C108.382 168.207 98.4417 178.148 98.4417 190.411C98.4417 202.673 108.382 212.614 120.645 212.614Z" fill="#FFB9B9"/>
<path d="M131.038 225.429L143.858 241.882L137.802 368.037L90.368 367.028L82.294 257.021L92.386 228.762L96.038 222.429L131.038 225.429Z" fill="#E4E4E4"/>
<path d="M152.941 289.317L164.043 331.705L152.941 374.093L171.107 398.315L187.255 321.612C187.255 321.612 175.144 259.039 174.135 251.975C173.126 244.91 171.107 243.901 171.107 243.901L163.033 244.91L152.941 289.317Z" fill="#2F2E41"/>
<path d="M72.202 305.464L65.137 318.585L63.118 340.788L67.155 366.019L53.026 389.232L38.897 325.649L54.035 243.9H60.091L72.202 305.464Z" fill="#2F2E41"/>
<path d="M101.443 196.162L100.917 205.137C100.917 205.137 94.4047 190.411 93.3955 175.272C92.3862 160.133 109.543 157.106 119.636 156.096C129.728 155.087 146.885 162.152 146.885 170.226C146.885 178.3 128.719 176.281 121.654 174.263C114.59 172.244 111.562 189.402 111.562 189.402L107.525 190.411L101.443 196.162Z" fill="#2F2E41"/>
<path d="M155.969 303.446L151.932 341.797L160.006 365.01L165.052 387.213C165.052 387.213 165.052 408.408 144.867 409.417C124.682 410.426 66.146 408.408 66.146 408.408C66.146 408.408 58.072 407.398 51.0073 391.25C43.9426 375.102 65.1367 359.964 65.1367 359.964L71.1922 338.77L69.1737 312.529L55.0442 243.901L96.9278 222.202L107.525 325.649L130.233 225.23L137.802 230.78L170.098 243.901L155.969 303.446Z" fill="#2F2E41"/>
<path d="M257.738 631.283H0V629.177H258.12L257.738 631.283Z" fill="#3F3D56"/>
<defs>
<clipPath id="clip0_0_1">
<rect width="942.547" height="631.439" fill="white" transform="translate(258)"/>
</clipPath>
</defs>
</svg>
